<?xml version="1.0" encoding="UTF-8" standalone="no"?>
<!-- Created with Inkscape (http://www.inkscape.org/) -->

<svg
   xmlns:dc="http://purl.org/dc/elements/1.1/"
   xmlns:cc="http://creativecommons.org/ns#"
   xmlns:rdf="http://www.w3.org/1999/02/22-rdf-syntax-ns#"
   xmlns:svg="http://www.w3.org/2000/svg"
   xmlns="http://www.w3.org/2000/svg"
   xmlns:sodipodi="http://sodipodi.sourceforge.net/DTD/sodipodi-0.dtd"
   xmlns:inkscape="http://www.inkscape.org/namespaces/inkscape"
   version="1.1"
   id="svg10"
   width="257.33334"
   height="110.66667"
   viewBox="0 0 257.33334 110.66667"
   sodipodi:docname="simple.svg"
   inkscape:version="0.92.4 (5da689c313, 2019-01-14)">
  <metadata
     id="metadata16">
    <rdf:RDF>
      <cc:Work
         rdf:about="">
        <dc:format>image/svg+xml</dc:format>
        <dc:type
           rdf:resource="http://purl.org/dc/dcmitype/StillImage" />
        <dc:title></dc:title>
      </cc:Work>
    </rdf:RDF>
  </metadata>
  <defs
     id="defs14" />
  <sodipodi:namedview
     pagecolor="#ffffff"
     bordercolor="#666666"
     borderopacity="1"
     objecttolerance="10"
     gridtolerance="10"
     guidetolerance="10"
     inkscape:pageopacity="0"
     inkscape:pageshadow="2"
     inkscape:window-width="1920"
     inkscape:window-height="1017"
     id="namedview12"
     showgrid="false"
     inkscape:zoom="2.4249548"
     inkscape:cx="180.57577"
     inkscape:cy="20.987829"
     inkscape:window-x="-8"
     inkscape:window-y="-8"
     inkscape:window-maximized="1"
     inkscape:current-layer="svg10" />
  <g
     id="g20"
     transform="translate(-2.5502725e-8,0.41237858)">
    <path
       style="fill:#f4f0f6;stroke-width:1"
       d="M 0,55.333335 V 0 H 128.66667 257.33334 V 55.333335 110.66667 H 128.66667 0 Z"
       id="path36"
       inkscape:connector-curvature="0" />
    <path
       style="fill:#549aef;stroke-width:1"
       d="M 0,55.333335 V 0 H 128.66667 257.33334 V 55.333335 110.66667 H 128.66667 0 Z m 141.33334,28.591062 v -8.075605 l 2.96334,2.075605 c 3.38696,2.372319 10.66278,2.726313 14.44384,0.702747 3.83712,-2.053564 6.59282,-8.409671 6.59282,-15.206561 0,-8.553479 -5.47003,-14.693308 -13.09039,-14.693308 -3.25673,0 -6.38595,0.925502 -7.967,2.356332 -2.50271,2.264924 -2.63273,2.245368 -3.35175,-0.504111 -0.41481,-1.586244 -1.52968,-2.600617 -2.50277,-2.27716 -1.32308,0.439791 -1.84592,5.462114 -2.12531,20.415231 -0.398,21.300609 -0.14302,23.282436 2.99538,23.282436 1.60881,0 2.04184,-1.712622 2.04184,-8.075606 z m 5.75382,-9.267035 c -4.22993,-1.70428 -6.16238,-6.229131 -5.32537,-12.469453 0.82017,-6.114931 3.65424,-8.854574 9.15972,-8.854574 8.7702,0 12.5554,12.64431 5.80576,19.393941 -3.48657,3.486582 -5.01664,3.792922 -9.64011,1.930086 z m -95.060471,3.32884 c 4.654455,-2.406913 6.639979,-5.736594 6.639979,-11.135104 0,-5.242289 -4.224751,-8.486454 -14.932294,-11.466428 -4.620572,-1.285934 -9.15104,-2.947015 -10.067706,-3.691291 -2.348402,-1.906756 -2.073211,-8.362791 0.445573,-10.453195 3.033324,-2.517436 14.055346,-2.207915 17.9263,0.503407 4.081551,2.85883 6.949882,2.894077 6.392559,0.07856 -0.670208,-3.385814 -9.036044,-7.155483 -15.879786,-7.155483 -10.994521,0 -19.00884,8.449415 -15.862839,16.724027 1.593958,4.192424 5.714662,6.661608 15.193575,9.104205 9.434369,2.431118 12.111802,4.691877 10.965522,9.259019 -1.573956,6.271141 -13.597498,7.596591 -22.473215,2.477401 -3.954068,-2.280562 -5.833244,-1.552326 -4.55952,1.766946 2.054569,5.354122 18.678883,7.883386 26.211852,3.987936 z M 71.714063,64.758843 C 71.988139,54.28983 71.632469,49.930232 70.444391,49.19596 c -3.195201,-1.974744 -3.777723,0.438032 -3.777723,15.647163 0,13.902705 0.220334,15.31021 2.333334,14.905505 2.023564,-0.387576 2.383879,-2.37759 2.714061,-14.989785 z m 14.952606,4.871167 c 0,-12.114871 2.030345,-16.296675 7.912345,-16.296675 5.523176,0 6.595356,2.244949 7.029416,14.71837 0.32961,9.47164 0.76079,11.322688 2.72491,11.697984 2.06194,0.393988 2.33333,-0.771664 2.33333,-10.021914 0,-12.302279 2.00402,-16.39444 8.02869,-16.39444 5.34425,0 6.63798,3.120335 6.63798,16.010111 0,9.616376 0.26569,10.801291 2.33333,10.405984 1.97071,-0.376773 2.38614,-2.205101 2.67313,-11.764432 0.39743,-13.238015 -1.17398,-17.35964 -7.28694,-19.112814 -3.3806,-0.969545 -5.18169,-0.666231 -8.83167,1.487312 -4.20208,2.479286 -4.76313,2.527134 -6.71739,0.57287 -2.82489,-2.824883 -10.723442,-2.718545 -13.934699,0.187605 -2.450097,2.217307 -2.596639,2.193389 -3.31156,-0.540475 -0.414572,-1.585325 -1.530253,-2.60096 -2.502781,-2.278349 -1.265761,0.419882 -1.861394,4.428168 -2.137421,14.38367 -0.41923,15.120515 -0.03804,17.315185 3.007483,17.315185 1.658552,0 2.041847,-1.946653 2.041847,-10.369992 z M 178,57.333335 c 0,-19.857527 -0.22373,-22.006567 -2.33333,-22.412839 -2.14897,-0.413855 -2.33333,1.357021 -2.33333,22.412839 0,21.055818 0.18436,22.826694 2.33333,22.412839 C 177.77627,79.339902 178,77.190862 178,57.333335 Z M 72.000002,38.000001 c 0,-2.41066 -0.716357,-3.333333 -2.587978,-3.333333 -1.423388,0 -2.976554,0.628732 -3.451484,1.397182 -1.428301,2.311042 0.441791,5.269485 3.330948,5.269485 2.000193,0 2.708514,-0.871723 2.708514,-3.333334 z"
       id="path34"
       inkscape:connector-curvature="0" />
    <path
       style="fill:#ab2bae;stroke-width:1"
       d="M 0,55.333335 V 0 H 128.66667 257.33334 V 55.333335 110.66667 H 128.66667 0 Z m 141.33334,28.460017 c 0,-7.866014 0.1012,-8.115058 2.43832,-6 2.73209,2.472516 11.04198,2.93539 14.96886,0.833792 3.82239,-2.045676 6.59282,-8.401629 6.59282,-15.125295 0,-11.103381 -10.47664,-18.452573 -19.72678,-13.838002 -3.41742,1.704843 -4.0258,1.693139 -5.15638,-0.0992 -0.71107,-1.127292 -1.98718,-1.596152 -2.86599,-1.053014 C 136.46803,49.201457 136,55.770111 136,70.745358 c 0,20.365755 0.11152,21.254645 2.66667,21.254645 2.37783,0 2.66667,-0.88889 2.66667,-8.206651 z m 1.85894,-12.488157 c -2.74478,-4.18908 -1.77913,-13.757708 1.64079,-16.258412 8.76864,-6.411783 18.62687,5.061533 13.26243,15.435222 -1.87172,3.619507 -2.8755,4.184664 -7.43234,4.184664 -4.16002,0 -5.7317,-0.707168 -7.47088,-3.361474 z m -91.165591,6.681007 c 4.654455,-2.406913 6.639979,-5.736594 6.639979,-11.135104 0,-5.242289 -4.224751,-8.486454 -14.932294,-11.466428 -4.620572,-1.285934 -9.15104,-2.947015 -10.067706,-3.691291 -2.304465,-1.871081 -2.091918,-8.347266 0.340201,-10.365744 2.737329,-2.271782 13.617079,-1.880727 17.44437,0.62701 4.122893,2.701424 7.528032,2.636784 6.979861,-0.132506 -1.279823,-6.465495 -19.300563,-9.460805 -27.358751,-4.547415 -4.54065,2.768608 -6.805635,9.264173 -5.102043,14.631719 0.941192,2.965432 8.00844,7.109181 14.696362,8.616939 11.171944,2.518656 14.185792,5.626216 10.666177,10.997827 -1.772482,2.705149 -3.140873,3.14546 -9.775408,3.14546 -4.718891,0 -8.719419,-0.76014 -10.302596,-1.957596 -3.6647,-2.771839 -7.556276,-2.610454 -7.015356,0.290929 1.117624,5.994716 19.468973,9.287724 27.787204,4.9862 z M 71.708851,64.476211 c 0.320836,-12.666477 0.06063,-14.946032 -1.786989,-15.65503 -1.189379,-0.456408 -2.70836,-0.492474 -3.375516,-0.08015 -1.411023,0.87206 -1.668372,29.025831 -0.27803,30.416174 0.51424,0.51424 1.86424,0.757056 3,0.539593 1.689273,-0.323445 2.133347,-3.09295 2.440535,-15.220587 z m 14.957818,5.153799 c 0,-11.525371 2.091099,-16.296675 7.142272,-16.296675 4.958664,0 6.191059,2.552812 6.191059,12.824284 0,11.353906 0.74474,13.842383 4.14265,13.842383 2.26012,0 2.52402,-1.084252 2.52402,-10.369992 0,-11.592359 2.09159,-16.296675 7.24568,-16.296675 4.81823,0 5.94108,2.599969 6.36275,14.733115 0.35614,10.247474 0.63285,11.266886 3.05824,11.266886 2.43086,0 2.69671,-1.002155 3.00646,-11.333334 0.41509,-13.844495 -1.1217,-17.514866 -8.05542,-19.239026 -4.20677,-1.046069 -5.58425,-0.794311 -8.84519,1.6166 -3.31071,2.447716 -4.08942,2.58213 -5.45146,0.940976 -2.5238,-3.041 -10.187,-3.931492 -13.748864,-1.597669 -2.766904,1.812945 -3.218668,1.804316 -4.409933,-0.08423 -3.07653,-4.877317 -4.495598,-0.108145 -4.495598,15.108702 0,14.365755 0.155387,15.254644 2.666667,15.254644 2.438087,0 2.666667,-0.888889 2.666667,-10.369992 z M 178,57.315075 c 0,-21.092851 -0.10784,-21.981741 -2.66666,-21.981741 -2.53572,0 -2.68482,1.012075 -3.03623,20.610685 -0.20325,11.335876 -0.0551,21.430221 0.32931,22.431875 0.38437,1.001656 1.75066,1.618631 3.03622,1.371058 C 177.77751,79.339662 178,77.204438 178,57.315075 Z M 72.000002,38.000001 c 0,-2.666667 -0.666667,-3.333333 -3.333334,-3.333333 -2.666666,0 -3.333333,0.666666 -3.333333,3.333333 0,2.666667 0.666667,3.333334 3.333333,3.333334 2.666667,0 3.333334,-0.666667 3.333334,-3.333334 z"
       id="path32"
       inkscape:connector-curvature="0" />
    <path
       style="fill:#da2262;stroke-width:1"
       d="M 0,55.333335 V 0 H 128.66667 257.33334 V 55.333335 110.66667 H 128.66667 0 Z m 142.66667,28.666668 c 0.40201,-4.422194 1.09488,-6.671711 1.74536,-5.666667 0.6164,0.9524 3.82411,1.666666 7.48484,1.666666 5.12876,0 7.10064,-0.694472 9.88893,-3.482768 7.48286,-7.48286 5.68327,-21.636122 -3.3672,-26.482114 -4.2832,-2.293405 -5.65172,-2.434836 -10.65018,-1.100667 -4.0533,1.081885 -5.99412,1.112365 -6.61738,0.10392 -0.48505,-0.784826 -1.84246,-1.058357 -3.01648,-0.607846 C 136.29967,49.134649 136,52.263455 136,70.717557 v 21.467915 l 3,-0.426068 c 2.59691,-0.36882 3.08958,-1.411408 3.66667,-7.759401 z m 2.20665,-11.771655 c -3.44746,-3.80941 -2.9799,-14.202193 0.7567,-16.819408 8.86877,-6.211932 17.85398,4.652844 12.46548,15.073065 -1.76627,3.41558 -2.97738,4.184664 -6.58975,4.184664 -2.59431,0 -5.33893,-1.009028 -6.63243,-2.438321 z m 71.48539,18.897072 c -0.9027,-0.365231 -2.7027,-0.387463 -4,-0.0494 -1.29729,0.338059 -0.5587,0.636884 1.6413,0.664056 2.2,0.02717 3.26141,-0.24942 2.3587,-0.614651 z m 15.72718,-10.110603 c -1.46255,-1.358375 -1.61964,-1.345076 -0.81754,0.0692 0.5694,1.003997 -0.0369,2.994386 -1.42157,4.666667 -2.3608,2.851176 -2.34263,2.849637 0.81753,-0.0692 2.69563,-2.48978 2.93155,-3.264235 1.42158,-4.666667 z m -21.78032,4.846296 c -0.44307,-0.443054 -1.59307,-0.490424 -2.55556,-0.105266 -1.06364,0.425634 -0.74771,0.741577 0.80556,0.805556 1.40554,0.05789 2.19305,-0.257238 1.75,-0.700294 z M 54.912299,76.168941 c 3.296172,-2.945129 4.287703,-4.920482 4.287703,-8.54207 0,-6.743249 -2.149743,-8.554136 -14.698725,-12.381809 -9.434949,-2.877838 -11.284921,-3.913567 -11.987059,-6.711105 -2.011567,-8.01472 10.803938,-11.644988 20.328499,-5.758485 4.078663,2.520752 4.568983,2.571745 5.342639,0.555631 0.524234,-1.366131 -0.242296,-3.313968 -1.993155,-5.064827 -4.18018,-4.18018 -19.146507,-4.816208 -25.119852,-1.067526 -4.536755,2.847125 -6.797763,9.36495 -5.102043,14.707693 0.941192,2.965432 8.00844,7.109181 14.696362,8.616939 11.171944,2.518656 14.185792,5.626216 10.666177,10.997827 -1.731346,2.642369 -3.175662,3.144663 -9.030248,3.140476 -4.485431,-0.0032 -8.445336,-0.905072 -11.110906,-2.530495 -4.519952,-2.756199 -8.117641,-1.800688 -6.73976,1.790014 1.322492,3.446358 8.800713,5.969728 17.860367,6.026609 7.309331,0.04589 8.829657,-0.410069 12.600001,-3.778872 z M 71.708982,64.333335 c -0.351331,-14.652563 -0.54826,-15.666667 -3.042314,-15.666667 -2.471804,0 -2.694629,1.016443 -3.049329,13.909862 -0.435665,15.836523 -0.09717,17.423472 3.716464,17.423472 2.644118,0 2.736255,-0.607733 2.375179,-15.666667 z m 16.019104,4.370455 c 0.409708,-11.032266 2.351128,-15.370455 6.878567,-15.370455 4.163828,0 5.392968,3.01206 5.413767,13.266667 0.0225,11.096552 1.04522,13.90196 4.80602,13.183399 2.16216,-0.413117 2.56118,-1.938699 2.90165,-11.09407 0.41243,-11.090455 2.35186,-15.355996 6.98197,-15.355996 3.97816,0 5.16192,3.133953 5.56504,14.733115 0.36599,10.530856 0.58755,11.294719 3.39157,11.692954 2.93946,0.41747 3,0.157098 3,-12.903227 0,-12.811753 -0.13641,-13.436593 -3.51315,-16.092735 -4.37834,-3.444005 -9.90113,-3.538343 -13.97597,-0.238734 -3.05945,2.477386 -3.17804,2.477386 -6.32753,0 -3.611091,-2.840488 -8.351692,-3.242015 -12.440571,-1.053713 -2.071549,1.10866 -3.002089,1.060803 -3.777779,-0.19429 -0.566061,-0.915905 -1.989757,-1.296684 -3.163768,-0.846173 -1.787463,0.685913 -2.134567,3.334368 -2.134567,16.287025 0,15.278153 0.0368,15.462688 3.000001,15.041847 2.78519,-0.39556 3.028265,-1.187178 3.39475,-11.055614 z M 178.66667,57.2406 V 34.481198 l -3,0.426068 c -2.94473,0.418219 -3.00681,0.8058 -3.36956,21.036753 -0.20325,11.335876 -0.0721,21.385877 0.29149,22.333334 0.36358,0.947457 1.87987,1.722649 3.36956,1.722649 2.61667,0 2.70851,-0.771678 2.70851,-22.759402 z m 15.75483,18.087101 c -0.83673,-1.836432 -1.77248,-3.08782 -2.07944,-2.780861 -0.62274,0.62273 2.08063,6.119829 3.0096,6.119829 0.32515,0 -0.0935,-1.502536 -0.93016,-3.338968 z m 41.57851,-1.421523 c 0,-0.366666 -1.2,-0.02444 -2.66667,0.760491 -1.46667,0.784936 -2.66667,1.727157 -2.66667,2.093824 0,0.366667 1.2,0.02444 2.66667,-0.760491 1.46667,-0.784936 2.66667,-1.727157 2.66667,-2.093824 z m -29.06667,-2.172843 c -2.55717,-2.557176 -1.89579,-10.966928 1.19699,-15.220188 l 2.79698,-3.846479 -3.46365,3.741019 c -2.44652,2.642427 -3.46365,5.207067 -3.46365,8.733334 0,4.359432 1.80906,8.192315 3.86666,8.192315 0.36667,0 -0.0533,-0.72 -0.93333,-1.600001 z m 17.3278,-2.066666 c -0.38632,-2.016667 -0.95972,-2.896874 -1.27421,-1.956015 -0.56712,1.696669 0.44742,5.622682 1.453,5.622682 0.288,0 0.20753,-1.650001 -0.17879,-3.666667 z m 14.14803,-1.035282 c -0.41052,-0.410517 -1.15607,0.329483 -1.65678,1.644444 -0.72357,1.900265 -0.57042,2.053417 0.7464,0.746394 0.91123,-0.904446 1.3209,-1.980322 0.91038,-2.390838 z m -46.0867,-8.309763 c 0.28383,-4.589774 0.0365,-7.589774 -0.54945,-6.666666 -0.58603,0.923108 -1.02734,5.278377 -0.98067,9.678377 0.1032,9.733073 0.83051,8.301574 1.53012,-3.011711 z m 47.05608,-7.882844 c -0.44833,-2.389878 -1.3901,-4.700571 -2.09282,-5.134872 -0.7869,-0.486323 -0.76706,0.553364 0.0516,2.706695 0.73112,1.922983 1.43017,6.607271 1.55344,10.409532 0.20141,6.212026 0.27885,6.378215 0.76353,1.63854 0.29667,-2.901064 0.17256,-7.230016 -0.27579,-9.619895 z m -14.45456,7.919931 c -0.33805,-1.297291 -0.63688,-0.558709 -0.66405,1.641291 -0.0272,2.2 0.24941,3.261419 0.61465,2.358709 0.36523,-0.90271 0.38746,-2.70271 0.0495,-4 z m 1.32846,-9.358709 c -0.33538,-1.283334 -0.60978,-0.233334 -0.60978,2.333333 0,2.566667 0.2744,3.616667 0.60978,2.333333 0.33536,-1.283333 0.33536,-3.383333 0,-4.666666 z m -25.87952,-7.497021 2.96041,-2.497021 -3.2356,1.928089 c -1.77957,1.06045 -4.09527,3.384108 -5.14599,5.163688 -1.82222,3.086301 -1.80953,3.112553 0.2752,0.568931 1.20207,-1.466667 3.51776,-3.790325 5.14598,-5.163687 z m 14.62708,4.947312 c -0.91667,-0.369882 -2.41667,-0.369882 -3.33334,0 -0.91666,0.369884 -0.16666,0.672515 1.66667,0.672515 1.83333,0 2.58333,-0.302631 1.66667,-0.672515 z m 21,-3.551206 c 0,-0.238836 -1.65,-1.888836 -3.66667,-3.666667 l -3.66667,-3.232419 3.23242,3.666667 c 3.02118,3.427052 4.10092,4.278117 4.10092,3.232419 z M 72.666669,38.000001 c 0,-1.917924 -1.029522,-2.785127 -3.666667,-3.088563 -3.178387,-0.365714 -3.666667,0.04558 -3.666667,3.088563 0,3.042982 0.48828,3.454278 3.666667,3.088563 2.637145,-0.303436 3.666667,-1.170639 3.666667,-3.088563 z M 215.66667,39.0809 c -1.28333,-0.335369 -3.38333,-0.335369 -4.66666,0 -1.28334,0.335371 -0.23334,0.609764 2.33333,0.609764 2.56667,0 3.61667,-0.274393 2.33333,-0.609764 z m 11.66667,-1.747566 c -0.45323,-0.733333 -1.53864,-1.324145 -2.41203,-1.312916 -0.95414,0.01227 -0.78969,0.536303 0.41203,1.312916 2.56149,1.655367 3.02307,1.655367 2,0 z"
       id="path30"
       inkscape:connector-curvature="0" />
    <path
       style="fill:#5423db;stroke-width:1"
       d="M 0,55.333335 V 0 H 128.66667 257.33334 V 55.333335 110.66667 H 128.66667 0 Z m 142.66667,28.666668 c 0.40201,-4.422194 1.09488,-6.671711 1.74536,-5.666667 0.6164,0.9524 3.82411,1.666666 7.48484,1.666666 5.12876,0 7.10064,-0.694472 9.88893,-3.482768 7.48286,-7.48286 5.68327,-21.636122 -3.3672,-26.482114 -4.2832,-2.293405 -5.65172,-2.434836 -10.65018,-1.100667 -4.0533,1.081885 -5.99412,1.112365 -6.61738,0.10392 -0.48505,-0.784826 -1.84246,-1.058357 -3.01648,-0.607846 C 136.29967,49.134649 136,52.263455 136,70.717557 v 21.467915 l 3,-0.426068 c 2.59691,-0.36882 3.08958,-1.411408 3.66667,-7.759401 z m 2.20665,-11.771655 c -3.44746,-3.80941 -2.9799,-14.202193 0.7567,-16.819408 8.86877,-6.211932 17.85398,4.652844 12.46548,15.073065 -1.76627,3.41558 -2.97738,4.184664 -6.58975,4.184664 -2.59431,0 -5.33893,-1.009028 -6.63243,-2.438321 z m 71.48539,18.897072 c -0.9027,-0.365231 -2.7027,-0.387463 -4,-0.0494 -1.29729,0.338059 -0.5587,0.636884 1.6413,0.664056 2.2,0.02717 3.26141,-0.24942 2.3587,-0.614651 z m 10.13795,-2.370835 c 5.39153,-2.788069 7.63243,-5.825505 5.71351,-7.744425 -1.16911,-1.169099 -1.5435,-0.843355 -1.5435,1.34293 0,2.90699 -2.911,5.124109 -9.25546,7.049277 -2.26851,0.688357 -2.6074,1.073485 -1.01166,1.149698 1.31975,0.06303 4.06346,-0.745834 6.09711,-1.79748 z m -16.82999,-2.970957 c -0.91666,-0.369883 -2.41666,-0.369883 -3.33333,0 -0.91667,0.369884 -0.16667,0.672515 1.66667,0.672515 1.83333,0 2.58333,-0.302631 1.66666,-0.672515 z m 11.30556,0.07748 c -0.44306,-0.443055 -1.59306,-0.490424 -2.55556,-0.105267 -1.06364,0.425635 -0.7477,0.741578 0.80556,0.805556 1.40555,0.05789 2.19306,-0.257237 1.75,-0.700293 z m -20.23702,-3.136919 c -5.75599,-3.794267 -8.61427,-10.113745 -8.67931,-19.189348 -0.0692,-9.652089 2.77093,-15.974842 9.11084,-20.282926 2.63209,-1.788552 4.04807,-3.251914 3.14663,-3.251914 -0.90146,0 -3.9392,2.078083 -6.75055,4.617963 -8.14316,7.356852 -10.41507,19.107581 -5.70104,29.486837 2.42199,5.332691 8.37815,11.23712 11.31804,11.21975 0.81777,-0.0048 -0.28231,-1.174995 -2.44461,-2.600362 z M 54.912299,76.168941 c 3.296172,-2.945129 4.287703,-4.920482 4.287703,-8.54207 0,-6.743249 -2.149743,-8.554136 -14.698725,-12.381809 -9.434949,-2.877838 -11.284921,-3.913567 -11.987059,-6.711105 -2.011567,-8.01472 10.803938,-11.644988 20.328499,-5.758485 4.078663,2.520752 4.568983,2.571745 5.342639,0.555631 0.524234,-1.366131 -0.242296,-3.313968 -1.993155,-5.064827 -4.18018,-4.18018 -19.146507,-4.816208 -25.119852,-1.067526 -4.536755,2.847125 -6.797763,9.36495 -5.102043,14.707693 0.941192,2.965432 8.00844,7.109181 14.696362,8.616939 11.171944,2.518656 14.185792,5.626216 10.666177,10.997827 -1.731346,2.642369 -3.175662,3.144663 -9.030248,3.140476 -4.485431,-0.0032 -8.445336,-0.905072 -11.110906,-2.530495 -4.519952,-2.756199 -8.117641,-1.800688 -6.73976,1.790014 1.322492,3.446358 8.800713,5.969728 17.860367,6.026609 7.309331,0.04589 8.829657,-0.410069 12.600001,-3.778872 z M 71.708982,64.333335 c -0.351331,-14.652563 -0.54826,-15.666667 -3.042314,-15.666667 -2.471804,0 -2.694629,1.016443 -3.049329,13.909862 -0.435665,15.836523 -0.09717,17.423472 3.716464,17.423472 2.644118,0 2.736255,-0.607733 2.375179,-15.666667 z m 16.019104,4.370455 c 0.409708,-11.032266 2.351128,-15.370455 6.878567,-15.370455 4.163828,0 5.392968,3.01206 5.413767,13.266667 0.0225,11.096552 1.04522,13.90196 4.80602,13.183399 2.16216,-0.413117 2.56118,-1.938699 2.90165,-11.09407 0.41243,-11.090455 2.35186,-15.355996 6.98197,-15.355996 3.97816,0 5.16192,3.133953 5.56504,14.733115 0.36599,10.530856 0.58755,11.294719 3.39157,11.692954 2.93946,0.41747 3,0.157098 3,-12.903227 0,-12.811753 -0.13641,-13.436593 -3.51315,-16.092735 -4.37834,-3.444005 -9.90113,-3.538343 -13.97597,-0.238734 -3.05945,2.477386 -3.17804,2.477386 -6.32753,0 -3.611091,-2.840488 -8.351692,-3.242015 -12.440571,-1.053713 -2.071549,1.10866 -3.002089,1.060803 -3.777779,-0.19429 -0.566061,-0.915905 -1.989757,-1.296684 -3.163768,-0.846173 -1.787463,0.685913 -2.134567,3.334368 -2.134567,16.287025 0,15.278153 0.0368,15.462688 3.000001,15.041847 2.78519,-0.39556 3.028265,-1.187178 3.39475,-11.055614 z M 178.66667,57.2406 V 34.481198 l -3,0.426068 c -2.94473,0.418219 -3.00681,0.8058 -3.36956,21.036753 -0.20325,11.335876 -0.0721,21.385877 0.29149,22.333334 0.36358,0.947457 1.87987,1.722649 3.36956,1.722649 2.61667,0 2.70851,-0.771678 2.70851,-22.759402 z m 38.12668,17.092736 c 2.51836,-2.97445 2.51728,-2.98161 -0.12666,-0.840651 -1.46667,1.187643 -3.56667,2.490275 -4.66667,2.894737 -1.69752,0.62417 -1.67836,0.751307 0.12667,0.840651 1.16968,0.05789 3.26968,-1.244737 4.66666,-2.894737 z m 17.92656,0.280088 c 3.73779,-3.737787 5.2801,-8.329862 5.2801,-15.721024 0,-11.025813 -8.7373,-22.035499 -18.67207,-23.528291 -3.74564,-0.562817 -4.0048,-0.477907 -1.31931,0.432264 12.71983,4.311012 17.97159,11.201659 17.98358,23.595601 0.008,8.836613 -2.65404,14.547968 -7.7366,16.595234 -2.29059,0.922654 -2.4179,1.195366 -0.58894,1.261613 1.28334,0.04648 3.5573,-1.139445 5.05324,-2.635397 z m -25.38657,-1.663735 c -4.60691,-2.318658 -5.32391,-10.503967 -1.38661,-15.829457 1.53988,-2.082793 2.173,-3.786897 1.40693,-3.786897 -2.1898,0 -6.67649,8.281347 -6.682,12.333334 -0.005,4.140721 4.1486,9.009939 7.66168,8.980344 1.70549,-0.01437 1.43643,-0.471069 -1,-1.697324 z m 16.74584,-0.06025 c -2.20663,-1.613523 -2.29151,-2.57543 -0.92151,-10.442551 0.82995,-4.765923 1.509,-9.66617 1.509,-10.889434 0,-2.971264 -2.06577,-2.868799 -2.20189,0.109213 -0.0587,1.283334 -0.5762,6.44294 -1.15008,11.465794 -0.82564,7.226343 -0.65429,9.378844 0.82095,10.312916 2.96905,1.879911 4.62641,1.405831 1.94353,-0.555938 z M 219.4383,50.968255 c -2.29592,-2.19905 -2.32433,-2.170636 -0.63777,0.637776 0.97086,1.616648 2.0522,2.652363 2.40297,2.301587 0.35077,-0.350776 -0.44356,-1.67349 -1.7652,-2.939363 z m -4.43829,-2.517962 c -0.91667,-0.369882 -2.41667,-0.369882 -3.33334,0 -0.91666,0.369884 -0.16666,0.672515 1.66667,0.672515 1.83333,0 2.58333,-0.302631 1.66667,-0.672515 z M 72.666669,38.000001 c 0,-1.917924 -1.029522,-2.785127 -3.666667,-3.088563 -3.178387,-0.365714 -3.666667,0.04558 -3.666667,3.088563 0,3.042982 0.48828,3.454278 3.666667,3.088563 2.637145,-0.303436 3.666667,-1.170639 3.666667,-3.088563 z m 144.333341,1.044995 c -2.01667,-0.3055 -5.31667,-0.3055 -7.33334,0 -2.01666,0.305499 -0.36666,0.555453 3.66667,0.555453 4.03333,0 5.68333,-0.249954 3.66667,-0.555453 z"
       id="path28"
       inkscape:connector-curvature="0" />
    <path
       style="fill:#5420b3;stroke-width:1"
       d="M 0,55.333335 V 0 H 128.66667 257.33334 V 55.333335 110.66667 H 128.66667 0 Z m 142.39607,29.919458 0.39607,-6.080543 7.61826,0.551056 c 6.88152,0.497766 7.96835,0.200976 11.23822,-3.068892 4.45901,-4.45901 5.86788,-11.226784 3.78461,-18.180126 -2.53532,-8.462128 -12.84693,-13.022621 -20.35712,-9.003293 -2.05136,1.097859 -2.99975,1.06458 -3.73877,-0.131187 -0.54462,-0.881201 -2.11831,-1.385617 -3.49711,-1.120923 -2.30008,0.441556 -2.53747,2.125045 -2.87744,20.405948 -0.20381,10.958577 -0.0565,20.743128 0.32737,21.743446 0.38386,1.000317 2.0506,1.626677 3.70388,1.39191 2.54582,-0.361506 3.06659,-1.35766 3.40203,-6.507392 z m 2.47725,-13.024445 c -3.44746,-3.80941 -2.9799,-14.202193 0.7567,-16.819408 3.98837,-2.793568 7.1665,-2.612422 10.36998,0.591062 3.54872,3.548722 3.68446,13.332288 0.22835,16.460016 -3.22023,2.914262 -8.60747,2.804348 -11.35503,-0.23167 z m 71.48539,18.897072 c -0.9027,-0.365231 -2.7027,-0.387463 -4,-0.0494 -1.29729,0.338059 -0.5587,0.636884 1.6413,0.664056 2.2,0.02717 3.26141,-0.24942 2.3587,-0.614651 z m 10.13795,-2.370835 c 5.39153,-2.788069 7.63243,-5.825505 5.71351,-7.744425 -1.16911,-1.169099 -1.5435,-0.843355 -1.5435,1.34293 0,2.90699 -2.911,5.124109 -9.25546,7.049277 -2.26851,0.688357 -2.6074,1.073485 -1.01166,1.149698 1.31975,0.06303 4.06346,-0.745834 6.09711,-1.79748 z m -16.82999,-2.970957 c -0.91666,-0.369883 -2.41666,-0.369883 -3.33333,0 -0.91667,0.369884 -0.16667,0.672515 1.66667,0.672515 1.83333,0 2.58333,-0.302631 1.66666,-0.672515 z m 11.30556,0.07748 c -0.44306,-0.443055 -1.59306,-0.490424 -2.55556,-0.105267 -1.06364,0.425635 -0.7477,0.741578 0.80556,0.805556 1.40555,0.05789 2.19306,-0.257237 1.75,-0.700293 z m -20.23702,-3.136919 c -5.75599,-3.794267 -8.61427,-10.113745 -8.67931,-19.189348 -0.0692,-9.652089 2.77093,-15.974842 9.11084,-20.282926 2.63209,-1.788552 4.04807,-3.251914 3.14663,-3.251914 -0.90146,0 -3.9392,2.078083 -6.75055,4.617963 -8.14316,7.356852 -10.41507,19.107581 -5.70104,29.486837 2.42199,5.332691 8.37815,11.23712 11.31804,11.21975 0.81777,-0.0048 -0.28231,-1.174995 -2.44461,-2.600362 z M 54.912299,76.168941 c 3.296172,-2.945129 4.287703,-4.920482 4.287703,-8.54207 0,-6.743249 -2.149743,-8.554136 -14.698725,-12.381809 -9.434949,-2.877838 -11.284921,-3.913567 -11.987059,-6.711105 -1.992868,-7.940217 9.00334,-11.215033 19.565199,-5.826773 4.764723,2.43078 5.390812,2.487509 6.132145,0.555629 1.607649,-4.189469 -4.07747,-7.752108 -13.308477,-8.339895 -13.292759,-0.846418 -19.569751,3.50273 -19.569751,13.559321 0,5.884975 4.073031,9.319883 13.682127,11.538545 12.09478,2.792589 16.067982,7.371967 10.889302,12.550646 -3.075594,3.075595 -13.545549,2.710699 -19.082773,-0.665068 -4.793913,-2.922608 -7.880681,-1.921779 -6.352812,2.059786 1.306327,3.404233 8.825844,5.92505 17.84312,5.981665 7.309331,0.04589 8.829657,-0.410069 12.600001,-3.778872 z M 71.708982,64.333335 c -0.351331,-14.652563 -0.54826,-15.666667 -3.042314,-15.666667 -2.494053,0 -2.690982,1.014104 -3.042313,15.666667 l -0.375648,15.666667 h 3.417961 3.417962 z m 16.019104,4.370455 c 0.412427,-11.10549 2.349772,-15.370455 6.981974,-15.370455 3.978157,0 5.161924,3.133953 5.56504,14.733115 0.38315,11.024704 0.46322,11.266886 3.7249,11.266886 3.2438,0 3.34394,-0.28552 3.72809,-10.629546 0.4097,-11.032266 2.35112,-15.370455 6.87856,-15.370455 4.32027,0 5.39335,2.971209 5.39335,14.933334 0,11.626667 0.0303,11.733333 3.33334,11.733333 3.3317,0 3.33333,-0.0064 3.33333,-13.23656 0,-12.71157 -0.13934,-13.346164 -3.51315,-16 -4.1791,-3.287286 -8.51133,-3.508755 -13.92037,-0.711631 -3.57143,1.846856 -4.26037,1.846856 -6.89713,0 -3.444645,-2.412724 -8.081671,-2.638544 -11.926571,-0.580816 -2.051368,1.097859 -2.999755,1.06458 -3.738781,-0.131187 -0.544614,-0.881201 -2.118308,-1.386112 -3.497102,-1.122025 -2.232204,0.427546 -2.548828,2.002617 -2.88956,14.374387 -0.442344,16.061224 -0.04495,17.748563 4.043368,17.168019 2.792574,-0.396548 3.033984,-1.181424 3.400712,-11.056395 z M 178.66667,57.333335 V 34.666668 H 175.33334 172 v 22.666667 22.666667 h 3.33334 3.33333 z m 38.12668,17.000001 c 2.51836,-2.97445 2.51728,-2.98161 -0.12666,-0.840651 -1.46667,1.187643 -3.56667,2.490275 -4.66667,2.894737 -1.69752,0.62417 -1.67836,0.751307 0.12667,0.840651 1.16968,0.05789 3.26968,-1.244737 4.66666,-2.894737 z m 17.92656,0.280088 c 3.73779,-3.737787 5.2801,-8.329862 5.2801,-15.721024 0,-11.025813 -8.7373,-22.035499 -18.67207,-23.528291 -3.74564,-0.562817 -4.0048,-0.477907 -1.31931,0.432264 12.71983,4.311012 17.97159,11.201659 17.98358,23.595601 0.008,8.836613 -2.65404,14.547968 -7.7366,16.595234 -2.29059,0.922654 -2.4179,1.195366 -0.58894,1.261613 1.28334,0.04648 3.5573,-1.139445 5.05324,-2.635397 z m -25.38657,-1.663735 c -4.60691,-2.318658 -5.32391,-10.503967 -1.38661,-15.829457 1.53988,-2.082793 2.173,-3.786897 1.40693,-3.786897 -2.1898,0 -6.67649,8.281347 -6.682,12.333334 -0.005,4.140721 4.1486,9.009939 7.66168,8.980344 1.70549,-0.01437 1.43643,-0.471069 -1,-1.697324 z m 16.74584,-0.06025 c -2.20663,-1.613523 -2.29151,-2.57543 -0.92151,-10.442551 0.82995,-4.765923 1.509,-9.66617 1.509,-10.889434 0,-2.971264 -2.06577,-2.868799 -2.20189,0.109213 -0.0587,1.283334 -0.5762,6.44294 -1.15008,11.465794 -0.82564,7.226343 -0.65429,9.378844 0.82095,10.312916 2.96905,1.879911 4.62641,1.405831 1.94353,-0.555938 z M 219.4383,50.968255 c -2.29592,-2.19905 -2.32433,-2.170636 -0.63777,0.637776 0.97086,1.616648 2.0522,2.652363 2.40297,2.301587 0.35077,-0.350776 -0.44356,-1.67349 -1.7652,-2.939363 z m -4.43829,-2.517962 c -0.91667,-0.369882 -2.41667,-0.369882 -3.33334,0 -0.91666,0.369884 -0.16666,0.672515 1.66667,0.672515 1.83333,0 2.58333,-0.302631 1.66667,-0.672515 z M 72.666669,38.000001 c 0,-1.789304 -1.03763,-2.813477 -3.153781,-3.112887 -3.843828,-0.543852 -6.1601,1.503099 -5.030844,4.445893 1.258228,3.278889 8.184625,2.150809 8.184625,-1.333006 z m 144.333341,1.044995 c -2.01667,-0.3055 -5.31667,-0.3055 -7.33334,0 -2.01666,0.305499 -0.36666,0.555453 3.66667,0.555453 4.03333,0 5.68333,-0.249954 3.66667,-0.555453 z"
       id="path26"
       inkscape:connector-curvature="0" />
    <path
       style="fill:#dc2224;stroke-width:1"
       d="m 206.63663,90.22134 c -0.38318,-0.39922 -2.28372,-1.013636 -4.22341,-1.365369 -4.31216,-0.781946 -11.27339,-6.787303 -14.12946,-12.189302 -1.3147,-2.486641 -2.14677,-7.53117 -2.19929,-13.333334 -0.0709,-7.838363 0.49409,-10.31748 3.52756,-15.477516 5.59306,-9.514002 11.55494,-12.540501 24.38798,-12.380369 16.81884,0.209868 27.80506,14.584484 23.46502,30.702161 -1.8245,6.775675 -5.267,9.945455 -11.42245,10.517543 -3.58868,0.333532 -5.20452,-0.191062 -6.37844,-2.070813 -1.42868,-2.287684 -1.78109,-2.328463 -3.86043,-0.446693 -3.33584,3.018886 -11.1559,3.430228 -13.53906,0.712165 -4.88151,-5.567502 -4.34475,-14.879818 1.24026,-21.517229 4.37072,-5.194297 12.48024,-5.748173 15.75283,-1.075908 l 2.0756,2.963342 v -3.074452 c 0,-1.884247 0.64521,-2.846842 1.66667,-2.486505 0.91666,0.323374 1.53238,1.723374 1.36825,3.111113 -2.08264,17.609484 -2.043,20.106847 0.33361,21.018839 3.29214,1.263308 8.37952,-3.79682 9.42611,-9.375586 1.81827,-9.692191 -3.98765,-21.499351 -11.9936,-24.390691 -21.21221,-7.660766 -40.1537,14.316107 -29.80104,34.57669 4.26672,8.350148 8.69579,11.129923 18.75399,11.770382 6.80598,0.433373 9.26005,0.0051 12.98564,-2.266073 5.4498,-3.322323 6.5937,-3.468855 6.5937,-0.844639 0,2.948457 -7.48789,6.24254 -15.88286,6.987211 -4.09776,0.363489 -7.76399,0.334254 -8.14718,-0.06496 z m 7.40086,-17.701839 c 4.27516,-2.801195 6.65964,-10.567604 4.76485,-15.519499 -1.16517,-3.045112 -2.20299,-3.666667 -6.12227,-3.666667 -3.89344,0 -5.1816,0.758287 -7.36134,4.333333 -3.3778,5.539993 -3.3723,10.946434 0.0147,14.333334 3.22667,3.226666 4.46014,3.300284 8.70415,0.519499 z"
       id="path24"
       inkscape:connector-curvature="0" />
    <path
       style="fill:#61206f;stroke-width:1"
       d="m 201.87333,74.333336 -2.53999,-3.000001 3,2.539985 c 2.81925,2.386957 3.60699,3.460016 2.53999,3.460016 -0.25302,0 -1.60302,-1.35 -3,-3 z m 27.46001,-1.503407 c 0,-0.276875 1.05,-1.326875 2.33333,-2.333334 2.11475,-1.658494 2.16191,-1.611334 0.50342,0.503407 -1.74183,2.220998 -2.83675,2.927306 -2.83675,1.829927 z m -30.35733,-7.496594 c 0,-2.566666 0.2744,-3.616666 0.60977,-2.333333 0.33536,1.283333 0.33536,3.383333 0,4.666667 -0.33537,1.283333 -0.60977,0.233333 -0.60977,-2.333334 z m -13.27953,-2.666666 c 0,-3.300001 0.26003,-4.650001 0.57783,-3.000001 0.31781,1.650001 0.31781,4.350001 0,6.000001 -0.3178,1.65 -0.57783,0.3 -0.57783,-3 z m 42.84351,-17.666668 -2.53998,-3 3,2.539984 c 2.81925,2.386958 3.60698,3.460016 2.53998,3.460016 -0.25301,0 -1.60301,-1.35 -3,-3 z M 192,43.496595 c 0,-0.276875 1.05001,-1.326875 2.33334,-2.333334 2.11475,-1.658494 2.16191,-1.611334 0.50341,0.503407 C 193.09493,43.887665 192,44.593973 192,43.496595 Z"
       id="path22"
       inkscape:connector-curvature="0" />
  </g>
</svg>
