<?xml version="1.0" encoding="UTF-8" standalone="no"?>
<!-- Generator: Adobe Illustrator 23.0.3, SVG Export Plug-In . SVG Version: 6.00 Build 0)  -->

<svg
   xmlns:dc="http://purl.org/dc/elements/1.1/"
   xmlns:cc="http://creativecommons.org/ns#"
   xmlns:rdf="http://www.w3.org/1999/02/22-rdf-syntax-ns#"
   xmlns:svg="http://www.w3.org/2000/svg"
   xmlns="http://www.w3.org/2000/svg"
   xmlns:sodipodi="http://sodipodi.sourceforge.net/DTD/sodipodi-0.dtd"
   xmlns:inkscape="http://www.inkscape.org/namespaces/inkscape"
   version="1.1"
   id="Layer_1"
   x="0px"
   y="0px"
   width="1136.7"
   height="1062.7"
   viewBox="0 0 1136.6999 1062.6999"
   xml:space="preserve"
   sodipodi:docname="telenor.svg"
   inkscape:version="0.92.4 (5da689c313, 2019-01-14)"><metadata
   id="metadata68"><rdf:RDF><cc:Work
       rdf:about=""><dc:format>image/svg+xml</dc:format><dc:type
         rdf:resource="http://purl.org/dc/dcmitype/StillImage" /><dc:title></dc:title></cc:Work></rdf:RDF></metadata><defs
   id="defs66" /><sodipodi:namedview
   pagecolor="#ffffff"
   bordercolor="#666666"
   borderopacity="1"
   objecttolerance="10"
   gridtolerance="10"
   guidetolerance="10"
   inkscape:pageopacity="0"
   inkscape:pageshadow="2"
   inkscape:window-width="1920"
   inkscape:window-height="1017"
   id="namedview64"
   showgrid="false"
   inkscape:zoom="0.61589195"
   inkscape:cx="1030.0824"
   inkscape:cy="381.27695"
   inkscape:window-x="-8"
   inkscape:window-y="-8"
   inkscape:window-maximized="1"
   inkscape:current-layer="Layer_1" />
<style
   type="text/css"
   id="style40">
	.st0{fill:#01ACFA;}
</style>
<g
   id="g45"
   transform="matrix(0.91334454,0,0,0.93035837,82.805685,190.26195)"
   style="stroke-width:1.08481967">
	<g
   id="Layer_1-2"
   style="stroke-width:1.08481967">
		<path
   class="st0"
   d="m 473.5,263.7 c 13.4,2.1 16.1,-0.7 17.9,-13.4 4.4,-29.6 13.2,-58.4 26.1,-85.4 17.6,-36 45.4,-75.6 84.6,-102.2 39.5,-25.5 83,-44.2 128.6,-55.3 30.8,-6.8 62.4,-8.9 93.8,-6.2 56.4,5.1 87.6,21.2 103.3,42 5.2,6.9 8.3,15.2 9,23.9 0.5,10.4 -4,23.9 -19,37.1 -14.9,13.3 -45.4,29 -87.5,43.1 -43.7,14.5 -103.4,29.9 -163,43.6 -34.5,7.8 -68.6,17.6 -102,29.3 -39.4,13.4 -51.3,52.6 -26.8,64.6 27.6,13.5 53.3,30.4 76.7,50.2 37.5,29.8 71.8,63.5 102.2,100.5 37.1,45.3 97.8,131.7 119.5,215.6 24.2,92.1 9.1,179.4 -43,203.8 -51.1,24 -119.2,-10.6 -167,-60.3 C 581.5,747.7 549.7,692.2 519.7,607 493.8,533.3 483.4,427 483.4,371.2 c 0,-18.6 0,-22.5 0.5,-39.3 1.7,-14.6 -37.7,-26.8 -80,0.5 -48.2,31 -95.3,87.1 -123.2,119.8 -12.1,14.3 -28.6,35.2 -46,57.1 -23,28.8 -48.3,58.8 -71.4,75.6 -34.6,24.7 -90.5,35.4 -129.8,7.6 C 11.7,577 0,547.6 0,517.7 c -0.3,-20.6 5,-40.9 15.4,-58.8 13.4,-23 34.6,-47.7 68.9,-76 45.2,-35.1 95.2,-63.6 148.4,-84.6 86.3,-34.7 179.2,-45.6 240.8,-34.6 z"
   id="path42"
   inkscape:connector-curvature="0"
   style="fill:#01acfa;stroke-width:1.08481967" />
	</g>
</g>

</svg>